<svg xmlns="http://www.w3.org/2000/svg" width="32" height="32"><path d="M23.927 7.073c-.215.306-2.015 2.726-6.267 4.32-1.96-3.6-4.131-6.558-4.462-7 .899-.217 1.837-.332 2.802-.332 3.038 0 5.815 1.14 7.927 3.013zm-7.091 9.05c-6.167 1.994-9.449 7.427-9.72 7.891-1.91-2.12-3.074-4.924-3.074-7.996l.006-.366c.523.011 6.318.085 12.29-1.702.342.67.669 1.35.97 2.029l-.471.142zm-.836-16.123c-8.837 0-16 7.163-16 16s7.163 16 16 16 16-7.163 16-16-7.163-16-16-16zm0 30c-7.72 0-14-6.28-14-14s6.28-14 14-14 14 6.28 14 14-6.28 14-14 14zm3.372-15.097c-.248-.583-.515-1.162-.793-1.732 4.421-1.805 6.425-4.374 6.677-4.715 1.665 2.035 2.674 4.627 2.7 7.449-.394-.083-4.348-.885-8.327-.385l-.258-.617zm-4.022-2.791c-5.594 1.485-10.52 1.464-11.055 1.457.775-3.711 3.276-6.795 6.622-8.373.315.432 2.452 3.394 4.434 6.916zm2.691 5.872l.079-.027c1.679 4.363 2.373 8.019 2.551 9.068-1.436.611-3.015.95-4.671.95-2.764 0-5.313-.943-7.34-2.524.215-.44 2.636-5.117 9.381-7.468zm2.317-.579c3.747-.6 7.04.382 7.449.511-.533 3.327-2.443 6.201-5.126 8.015-.123-.727-.759-4.228-2.323-8.526z" fill="#fff"/></svg>