<svg xmlns="http://www.w3.org/2000/svg" width="32" height="32"><path d="M32 19.003v-6.006l-4.587-.764c-.186-.567-.413-1.115-.678-1.641l2.702-3.782-4.247-4.247-3.776 2.697c-.528-.267-1.079-.497-1.649-.684l-.763-4.575h-6.006l-.763 4.575c-.57.188-1.121.417-1.649.684l-3.776-2.697-4.247 4.247 2.702 3.782c-.265.526-.492 1.074-.678 1.641l-4.587.764v6.006l4.597.766c.186.561.413 1.105.676 1.626l-2.711 3.795 4.247 4.247 3.802-2.715c.519.261 1.059.485 1.618.67l.768 4.608h6.006l.768-4.609c.559-.185 1.099-.409 1.618-.67l3.802 2.715 4.247-4.247-2.711-3.795c.264-.521.49-1.064.676-1.626l4.597-.766zm-16 .997c-2.209 0-4-1.791-4-4s1.791-4 4-4 4 1.791 4 4-1.791 4-4 4z" fill="#fff"/></svg>