<svg xmlns="http://www.w3.org/2000/svg" width="32" height="32"><path d="M27.837 22.161c-1.427-1.424-3.241-2.159-4.936-2.159h-.91l-1.997-2 7.988-8.001c1.997-2 1.997-6.001 0-8.001l-11.982 12.002-11.982-12.002c-1.997 2-1.997 6.001 0 8.001l7.988 8.001-1.997 2h-.91c-1.694 0-3.509.735-4.936 2.159-2.551 2.545-2.895 6.328-.77 8.448.937.934 2.196 1.39 3.531 1.39 1.694 0 3.509-.735 4.936-2.159 1.675-1.671 2.398-3.875 2.096-5.792l2.043-2.047 2.043 2.047c-.302 1.917.422 4.121 2.096 5.792 1.427 1.424 3.242 2.159 4.936 2.159 1.335 0 2.595-.456 3.531-1.39 2.126-2.121 1.781-5.903-.77-8.448zm-16.805 4.262c-.241.559-.594 1.073-1.051 1.529-.457.456-.974.81-1.536 1.051-.504.216-1.03.33-1.521.33-.473 0-1.144-.106-1.652-.613-.504-.503-.61-1.166-.61-1.634 0-.486.114-1.007.329-1.507.241-.559.594-1.073 1.051-1.529.457-.456.974-.81 1.536-1.051.504-.216 1.03-.33 1.521-.33.473 0 1.144.106 1.652.613.504.503.61 1.166.61 1.634 0 .486-.114 1.007-.329 1.507zm4.968-5.592c-1.56 0-2.824-1.267-2.824-2.829 0-1.562 1.264-2.829 2.824-2.829s2.824 1.267 2.824 2.829c0 1.562-1.264 2.829-2.824 2.829zm10.727 7.889c-.508.506-1.178.613-1.652.613-.491 0-1.017-.114-1.521-.33-.562-.241-1.078-.594-1.536-1.051-.457-.456-.81-.97-1.051-1.529-.215-.5-.329-1.021-.329-1.507 0-.468.106-1.131.61-1.634.508-.506 1.178-.613 1.652-.613.491 0 1.017.114 1.521.33.562.241 1.079.594 1.536 1.051.457.456.81.97 1.051 1.529.215.5.329 1.021.329 1.507 0 .468-.106 1.131-.61 1.634z" fill="#fff"/></svg>